<svg width="16" height="16" viewBox="0 0 16 16" fill="none" xmlns="http://www.w3.org/2000/svg">
<path fill-rule="evenodd" clip-rule="evenodd" d="M13.2094 3.19379H2.79266C2.55797 3.19379 2.40204 3.01855 2.40204 2.80356C2.40204 2.58857 2.55797 2.41333 2.79266 2.41333H13.2094C13.4441 2.41333 13.6 2.58857 13.6 2.80356C13.6 3.01855 13.4441 3.19379 13.2094 3.19379ZM13.2094 5.79533H2.79266C2.55797 5.79533 2.40204 5.62009 2.40204 5.4051C2.40204 5.19011 2.55797 5.01487 2.79266 5.01487H13.2094C13.4441 5.01487 13.6 5.19011 13.6 5.4051C13.6 5.62009 13.4441 5.79533 13.2094 5.79533ZM13.2094 8.39687H2.79266C2.55797 8.39687 2.40204 8.22163 2.40204 8.00664C2.40204 7.79165 2.55797 7.61641 2.79266 7.61641H13.2094C13.4441 7.61641 13.6 7.79165 13.6 8.00664C13.6 8.22163 13.4441 8.39687 13.2094 8.39687ZM13.2094 10.9984H2.79266C2.55797 10.9984 2.40204 10.8232 2.40204 10.6082C2.40204 10.3932 2.55797 10.218 2.79266 10.218H13.2094C13.4441 10.218 13.6 10.3932 13.6 10.6082C13.6 10.8232 13.4441 10.9984 13.2094 10.9984ZM8.00101 13.6H2.79266C2.55797 13.6 2.40204 13.4248 2.40204 13.2098C2.40204 12.9948 2.55797 12.8195 2.79266 12.8195H8.00101C8.23571 12.8195 8.39164 12.9948 8.39164 13.2098C8.39164 13.4248 8.23571 13.6 8.00101 13.6Z" fill="#92929D"/>
</svg>
