<svg width="16" height="16" viewBox="0 0 16 16" fill="none" xmlns="http://www.w3.org/2000/svg">
<path fill-rule="evenodd" clip-rule="evenodd" d="M4.40443 13.345C4.18351 13.345 4.00443 13.1659 4.00443 12.945V3.34501C4.00443 3.12409 4.18351 2.94501 4.40443 2.94501H8.67109C10.0765 2.94501 11.2044 4.20307 11.2044 5.74501C11.2044 6.57188 10.8801 7.31711 10.3625 7.83048C11.463 8.13809 12.2711 9.23985 12.2711 10.545C12.2711 12.0869 11.1432 13.345 9.73776 13.345H4.40443ZM4.80443 12.545H9.73777C10.6881 12.545 11.4711 11.6545 11.4711 10.545C11.4711 9.43554 10.6881 8.545 9.73777 8.545H4.80443V12.545ZM4.80443 7.74502H8.6711C9.62141 7.74502 10.4044 6.85448 10.4044 5.74502C10.4044 4.63555 9.62141 3.74502 8.6711 3.74502H4.80443V7.74502Z" fill="#92929D"/>
</svg>
