<svg width="16" height="16" viewBox="0 0 16 16" fill="none" xmlns="http://www.w3.org/2000/svg">
<path fill-rule="evenodd" clip-rule="evenodd" d="M6 12.6414V4.13331H8.8C9.02091 4.13331 9.2 3.95423 9.2 3.73331C9.2 3.5124 9.02091 3.33331 8.8 3.33331H2.4C2.17909 3.33331 2 3.5124 2 3.73331C2 3.95423 2.17909 4.13331 2.4 4.13331H5.2V12.6414C5.2 12.8623 5.37909 13.0414 5.6 13.0414C5.82091 13.0414 6 12.8623 6 12.6414ZM11.0667 4.70082V11.8325L10.1493 10.9169C9.99289 10.7608 9.73962 10.7611 9.58357 10.9174C9.42751 11.0738 9.42776 11.3271 9.58413 11.4831L11.1873 12.9245C11.3437 13.0806 11.597 13.0803 11.753 12.9239L13.3498 11.4825C13.5059 11.3262 13.5056 11.0729 13.3493 10.9169C13.1929 10.7608 12.9396 10.7611 12.7836 10.9174L11.8667 11.8361V4.69717L12.7836 5.61587C12.9396 5.77224 13.1929 5.77249 13.3493 5.61644C13.5056 5.46038 13.5059 5.20712 13.3498 5.05075L11.753 3.45075C11.597 3.29439 11.3437 3.29413 11.1873 3.45019L9.58413 5.05019C9.42776 5.20624 9.42751 5.45951 9.58357 5.61587C9.73962 5.77224 9.99289 5.77249 10.1493 5.61644L11.0667 4.70082Z" fill="#92929D"/>
</svg>
