<svg width="16" height="16" viewBox="0 0 16 16" fill="none" xmlns="http://www.w3.org/2000/svg">
<path fill-rule="evenodd" clip-rule="evenodd" d="M2.6666 3.20595C2.42627 3.20595 2.2666 3.02631 2.2666 2.80595C2.2666 2.58558 2.42627 2.40594 2.6666 2.40594H13.3333C13.5736 2.40594 13.7333 2.58558 13.7333 2.80595C13.7333 3.02631 13.5736 3.20595 13.3333 3.20595H2.6666ZM2.6666 5.8726C2.42627 5.8726 2.2666 5.69297 2.2666 5.4726C2.2666 5.25223 2.42627 5.0726 2.6666 5.0726H13.3333C13.5736 5.0726 13.7333 5.25223 13.7333 5.4726C13.7333 5.69297 13.5736 5.8726 13.3333 5.8726H2.6666ZM2.6666 8.53929C2.42627 8.53929 2.2666 8.35965 2.2666 8.13929C2.2666 7.91892 2.42627 7.73929 2.6666 7.73929H13.3333C13.5736 7.73929 13.7333 7.91892 13.7333 8.13929C13.7333 8.35965 13.5736 8.53929 13.3333 8.53929H2.6666ZM2.6666 11.2059C2.42627 11.2059 2.2666 11.0263 2.2666 10.8059C2.2666 10.5856 2.42627 10.4059 2.6666 10.4059H13.3333C13.5736 10.4059 13.7333 10.5856 13.7333 10.8059C13.7333 11.0263 13.5736 11.2059 13.3333 11.2059H2.6666ZM2.6666 13.8726C2.13327 13.8726 2.13327 13.0726 2.6666 13.0726H13.3333C13.8666 13.0726 13.8666 13.8726 13.3333 13.8726H2.6666Z" fill="#92929D"/>
</svg>
