<svg width="16" height="16" viewBox="0 0 16 16" fill="none" xmlns="http://www.w3.org/2000/svg">
<path fill-rule="evenodd" clip-rule="evenodd" d="M7.45976 12.5341H9.06675C9.28767 12.5341 9.46675 12.7132 9.46675 12.9341C9.46675 13.155 9.28767 13.3341 9.06675 13.3341H6.94529C6.9376 13.3343 6.92987 13.3343 6.92212 13.3341H4.80009C4.57917 13.3341 4.40009 13.155 4.40009 12.9341C4.40009 12.7132 4.57917 12.5341 4.80009 12.5341H6.62947L9.07392 3.73412H7.46675C7.24584 3.73412 7.06675 3.55503 7.06675 3.33412C7.06675 3.1132 7.24584 2.93412 7.46675 2.93412H9.59475C9.5982 2.93407 9.60165 2.93407 9.60511 2.93412L11.7334 2.93412C11.9543 2.93412 12.1334 3.1132 12.1334 3.33412C12.1334 3.55503 11.9543 3.73412 11.7334 3.73412H9.90421L7.45976 12.5341Z" fill="#92929D"/>
</svg>
