<svg width="16" height="16" viewBox="0 0 16 16" fill="none" xmlns="http://www.w3.org/2000/svg">
<path fill-rule="evenodd" clip-rule="evenodd" d="M12.7686 3.9898L12.0102 3.23132C11.435 2.65621 10.5026 2.65621 9.9275 3.23132L8.0313 5.12752C7.45619 5.70263 7.45619 6.63507 8.0313 7.21017L8.13251 7.31138L7.31135 8.13254L7.21014 8.03133C6.63504 7.45622 5.7026 7.45622 5.12749 8.03133L3.23129 9.92753C2.65618 10.5026 2.65618 11.4351 3.23129 12.0102L3.98977 12.7687C4.56488 13.3438 5.49731 13.3438 6.07242 12.7687L7.96863 10.8725C8.54373 10.2974 8.54373 9.36492 7.96863 8.78981L7.87704 8.69822L8.69819 7.87707L8.78978 7.96866C9.36489 8.54376 10.2973 8.54376 10.8724 7.96866L12.7686 6.07245C13.3437 5.49734 13.3437 4.56491 12.7686 3.9898ZM9.26388 7.31138L9.35547 7.40298C9.61816 7.66567 10.0441 7.66567 10.3068 7.40298L12.203 5.50677C12.4656 5.24409 12.4656 4.81818 12.203 4.55549L11.4445 3.79701C11.1818 3.53432 10.7559 3.53432 10.4932 3.79701L8.59699 5.69322C8.3343 5.95591 8.3343 6.38181 8.59699 6.6445L8.69819 6.7457L9.32192 6.12197C9.49185 5.95204 9.73178 5.96615 9.8876 6.12197C10.0434 6.2778 10.0575 6.51772 9.8876 6.68766L9.26388 7.31138ZM6.74568 8.69821L6.12192 9.32197C5.95198 9.49191 5.96609 9.73183 6.12192 9.88766C6.27774 10.0435 6.51767 10.0576 6.6876 9.88766L7.31136 9.2639L7.40295 9.35548C7.66564 9.61817 7.66564 10.0441 7.40295 10.3068L5.50674 12.203C5.24405 12.4657 4.81815 12.4657 4.55546 12.203L3.79698 11.4445C3.53429 11.1818 3.53429 10.7559 3.79698 10.4932L5.69319 8.597C5.95588 8.33431 6.38178 8.33431 6.64447 8.597L6.74568 8.69821Z" fill="#92929D"/>
</svg>
