<svg width="16" height="16" viewBox="0 0 16 16" fill="none" xmlns="http://www.w3.org/2000/svg">
<path fill-rule="evenodd" clip-rule="evenodd" d="M11.7333 2.40088C11.5124 2.40088 11.3333 2.57997 11.3333 2.80088V7.60088C11.3333 9.44183 9.84091 10.9342 7.99996 10.9342C6.15901 10.9342 4.66662 9.44183 4.66662 7.60088V2.80088C4.66662 2.57997 4.48754 2.40088 4.26662 2.40088C4.04571 2.40088 3.86662 2.57997 3.86662 2.80088V7.60088C3.86662 9.88366 5.71718 11.7342 7.99996 11.7342C10.2827 11.7342 12.1333 9.88366 12.1333 7.60088V2.80088C12.1333 2.57997 11.9542 2.40088 11.7333 2.40088ZM3.33331 12.9342C3.33331 13.1551 3.5124 13.3342 3.73331 13.3342H12.2666C12.4876 13.3342 12.6666 13.1551 12.6666 12.9342C12.6666 12.7133 12.4876 12.5342 12.2666 12.5342H3.73331C3.5124 12.5342 3.33331 12.7133 3.33331 12.9342Z" fill="#92929D"/>
</svg>
