<svg width="24" height="24" viewBox="0 0 24 24" fill="none" xmlns="http://www.w3.org/2000/svg">
<path fill-rule="evenodd" clip-rule="evenodd" d="M18.861 7.5961L19.9757 6.48135L17.5187 4.02428L16.4039 5.13904L18.861 7.5961ZM17.4542 9.00288L14.9971 6.54581L5.80565 15.7373L5.24014 18.7599L8.26272 18.1943L17.4542 9.00288ZM21.4419 5.13399C22.186 5.87811 22.186 7.08458 21.4419 7.82871L9.45174 19.8189C9.30989 19.9607 9.12847 20.0564 8.93129 20.0933L4.17816 20.9826C3.49083 21.1112 2.88885 20.5092 3.01744 19.8218L3.90674 15.0687C3.94363 14.8715 4.03928 14.6901 4.18113 14.5483L16.1713 2.55809C16.9154 1.81397 18.1219 1.81397 18.866 2.55809L21.4419 5.13399ZM21.0099 21H12.9901C11.67 21 11.67 19 12.9901 19H21.0099C22.33 19 22.33 21 21.0099 21Z" fill="#B5B5BE"/>
</svg>
