<svg width="40" height="40" viewBox="0 0 40 40" fill="none" xmlns="http://www.w3.org/2000/svg">
<path d="M2.6196 28.9226C2.20653 25.9017 2 22.8979 2 19.9113C2 16.9251 2.20648 13.9217 2.61944 10.9012C2.71137 10.2287 3.05717 9.61915 3.58352 9.20164C5.93453 7.33678 8.38863 5.65353 10.9458 4.15191C13.5037 2.64988 16.1647 1.32956 18.9289 0.190965C19.5466 -0.0634525 20.2373 -0.0636621 20.8551 0.19038C23.6043 1.32087 26.2651 2.64138 28.8375 4.15191C31.4095 5.66223 33.8639 7.34541 36.2008 9.20145C36.7265 9.61894 37.0718 10.2281 37.1637 10.9C37.5767 13.9209 37.7833 16.9247 37.7833 19.9113C37.7833 22.8975 37.5768 25.9009 37.1638 28.9214C37.0719 29.5938 36.7261 30.2034 36.1998 30.6209C33.8488 32.4858 31.3947 34.169 28.8375 35.6707C26.2796 37.1727 23.6185 38.493 20.8544 39.6316C20.2367 39.886 19.546 39.8862 18.9282 39.6322C16.179 38.5017 13.5182 37.1812 10.9458 35.6707C8.37382 34.1603 5.91936 32.4772 3.58244 30.6211C3.05678 30.2036 2.71147 29.5945 2.6196 28.9226Z" fill="#FFC542"/>
<mask id="mask0_0_428" style="mask-type:alpha" maskUnits="userSpaceOnUse" x="2" y="0" width="36" height="40">
<path d="M2.6196 28.9226C2.20653 25.9017 2 22.8979 2 19.9113C2 16.9251 2.20648 13.9217 2.61944 10.9012C2.71137 10.2287 3.05717 9.61915 3.58352 9.20164C5.93453 7.33678 8.38863 5.65353 10.9458 4.15191C13.5037 2.64988 16.1647 1.32956 18.9289 0.190965C19.5466 -0.0634525 20.2373 -0.0636621 20.8551 0.19038C23.6043 1.32087 26.2651 2.64138 28.8375 4.15191C31.4095 5.66223 33.8639 7.34541 36.2008 9.20145C36.7265 9.61894 37.0718 10.2281 37.1637 10.9C37.5767 13.9209 37.7833 16.9247 37.7833 19.9113C37.7833 22.8975 37.5768 25.9009 37.1638 28.9214C37.0719 29.5938 36.7261 30.2034 36.1998 30.6209C33.8488 32.4858 31.3947 34.169 28.8375 35.6707C26.2796 37.1727 23.6185 38.493 20.8544 39.6316C20.2367 39.886 19.546 39.8862 18.9282 39.6322C16.179 38.5017 13.5182 37.1812 10.9458 35.6707C8.37382 34.1603 5.91936 32.4772 3.58244 30.6211C3.05678 30.2036 2.71147 29.5945 2.6196 28.9226Z" fill="white"/>
</mask>
<g mask="url(#mask0_0_428)">
</g>
<path d="M9.00516 19.6536C9.00516 19.6536 10.1073 21.2874 12.4173 22.6703C12.4173 22.6703 10.7443 8.40368 21.6451 5.92593C18.8523 16.2682 25.1977 19.1849 27.5107 13.7209C31.3734 18.9245 28.4406 23.4644 28.4406 23.4644C30.0244 23.6946 31.3549 21.9487 31.3549 21.9487C31.3668 22.1637 31.3734 22.3803 31.3734 22.5984C31.3735 28.9362 26.2814 34.0741 20 34.0741C13.7186 34.0741 8.62653 28.9362 8.62653 22.5983C8.62653 21.5803 8.7586 20.5934 9.00516 19.6536Z" fill="#FF7058"/>
<path d="M15.0121 29.0413C15.0121 31.8208 17.2453 34.0741 20 34.0741C22.7547 34.0741 24.9879 31.8208 24.9879 29.0413C24.9879 27.5535 24.3482 26.2166 23.3311 25.2953C21.4026 27.9388 18.6544 23.9288 20.7962 21.0004C20.7962 21.0004 15.0121 21.7317 15.0121 29.0413Z" fill="#FFC065"/>
<path d="M24.9879 29.0413C24.9879 27.5535 24.3482 26.2166 23.3311 25.2953C21.4026 27.9388 18.6544 23.9288 20.7962 21.0004C20.7962 21.0004 19.6485 21.594 19.1087 22.4921C16.3621 27.8628 20 34.0741 20 34.0741C22.7547 34.0741 24.9879 31.8208 24.9879 29.0413Z" fill="#FFA624"/>
</svg>
