<svg width="40" height="40" viewBox="0 0 40 40" fill="none" xmlns="http://www.w3.org/2000/svg">
<path d="M2.6196 28.9226C2.20653 25.9017 2 22.8979 2 19.9113C2 16.9251 2.20648 13.9217 2.61944 10.9012C2.71137 10.2287 3.05717 9.61915 3.58352 9.20164C5.93453 7.33678 8.38863 5.65353 10.9458 4.15191C13.5037 2.64988 16.1647 1.32956 18.9289 0.190965C19.5466 -0.0634525 20.2373 -0.0636621 20.8551 0.19038C23.6043 1.32087 26.2651 2.64138 28.8375 4.15191C31.4095 5.66223 33.8639 7.34541 36.2008 9.20145C36.7265 9.61894 37.0718 10.2281 37.1637 10.9C37.5767 13.9209 37.7833 16.9247 37.7833 19.9113C37.7833 22.8975 37.5768 25.9009 37.1638 28.9214C37.0719 29.5938 36.7261 30.2034 36.1998 30.6209C33.8488 32.4858 31.3947 34.169 28.8375 35.6707C26.2796 37.1727 23.6185 38.493 20.8544 39.6316C20.2367 39.886 19.546 39.8862 18.9282 39.6322C16.179 38.5017 13.5182 37.1812 10.9458 35.6707C8.37382 34.1603 5.91936 32.4772 3.58244 30.6211C3.05678 30.2036 2.71147 29.5945 2.6196 28.9226Z" fill="#50B5FF"/>
<mask id="mask0_0_426" style="mask-type:alpha" maskUnits="userSpaceOnUse" x="2" y="0" width="36" height="40">
<path d="M2.6196 28.9226C2.20653 25.9017 2 22.8979 2 19.9113C2 16.9251 2.20648 13.9217 2.61944 10.9012C2.71137 10.2287 3.05717 9.61915 3.58352 9.20164C5.93453 7.33678 8.38863 5.65353 10.9458 4.15191C13.5037 2.64988 16.1647 1.32956 18.9289 0.190965C19.5466 -0.0634525 20.2373 -0.0636621 20.8551 0.19038C23.6043 1.32087 26.2651 2.64138 28.8375 4.15191C31.4095 5.66223 33.8639 7.34541 36.2008 9.20145C36.7265 9.61894 37.0718 10.2281 37.1637 10.9C37.5767 13.9209 37.7833 16.9247 37.7833 19.9113C37.7833 22.8975 37.5768 25.9009 37.1638 28.9214C37.0719 29.5938 36.7261 30.2034 36.1998 30.6209C33.8488 32.4858 31.3947 34.169 28.8375 35.6707C26.2796 37.1727 23.6185 38.493 20.8544 39.6316C20.2367 39.886 19.546 39.8862 18.9282 39.6322C16.179 38.5017 13.5182 37.1812 10.9458 35.6707C8.37382 34.1603 5.91936 32.4772 3.58244 30.6211C3.05678 30.2036 2.71147 29.5945 2.6196 28.9226Z" fill="white"/>
</mask>
<g mask="url(#mask0_0_426)">
</g>
<path d="M16.368 11.6609H23.9736L29.3451 6.45799C29.8232 5.99488 29.4954 5.18518 28.8297 5.18518H24.5532C23.5913 5.18518 22.6672 5.55936 21.9764 6.22856L16.368 11.6609Z" fill="#F1543F"/>
<path fill-rule="evenodd" clip-rule="evenodd" d="M14.5893 11.1064V15.1146H25.3843V11.1064C25.3843 10.6973 25.0527 10.3657 24.6436 10.3657H15.33C14.9209 10.3657 14.5893 10.6973 14.5893 11.1064ZM24.1576 13.8811H15.816V11.5992H24.1576V13.8811Z" fill="#F8B64C"/>
<path d="M23.9736 11.6609H16.368L10.9497 6.46034C10.4683 5.99828 10.7954 5.18518 11.4626 5.18518H15.7884C16.7502 5.18518 17.6744 5.55936 18.3652 6.22855L23.9736 11.6609Z" fill="#FF7058"/>
<path d="M19.9868 34.7883C26.2536 34.7883 31.3339 29.6801 31.3339 23.3788C31.3339 17.0775 26.2536 11.9692 19.9868 11.9692C13.7201 11.9692 8.63983 17.0775 8.63983 23.3788C8.63983 29.6801 13.7201 34.7883 19.9868 34.7883Z" fill="#FFD15C"/>
<path d="M19.9581 32.0155C15.2353 32.0155 11.3712 28.13 11.3712 23.3812C11.3712 18.6324 15.2353 14.7469 19.9581 14.7469C24.6809 14.7469 28.5451 18.6324 28.5451 23.3812C28.5451 28.13 24.6809 32.0155 19.9581 32.0155Z" fill="#F8B64C"/>
<path d="M19.9413 17.6981L21.3645 22.0377H25.9287L22.1988 24.75L23.6221 29.0896L19.9413 26.3773L16.2605 29.0896L17.6837 24.75L13.9539 22.0377H18.518L19.9413 17.6981Z" fill="#FFD15C"/>
</svg>
