<svg width="40" height="40" viewBox="0 0 40 40" fill="none" xmlns="http://www.w3.org/2000/svg">
<path d="M2.6196 28.9226C2.20653 25.9017 2 22.8979 2 19.9113C2 16.9251 2.20648 13.9217 2.61944 10.9012C2.71137 10.2287 3.05717 9.61915 3.58352 9.20164C5.93453 7.33678 8.38863 5.65353 10.9458 4.15191C13.5037 2.64988 16.1647 1.32956 18.9289 0.190965C19.5466 -0.0634525 20.2373 -0.0636621 20.8551 0.19038C23.6043 1.32087 26.2651 2.64138 28.8375 4.15191C31.4095 5.66223 33.8639 7.34541 36.2008 9.20145C36.7265 9.61894 37.0718 10.2281 37.1637 10.9C37.5767 13.9209 37.7833 16.9247 37.7833 19.9113C37.7833 22.8975 37.5768 25.9009 37.1638 28.9214C37.0719 29.5938 36.7261 30.2034 36.1998 30.6209C33.8488 32.4858 31.3947 34.169 28.8375 35.6707C26.2796 37.1727 23.6185 38.493 20.8544 39.6316C20.2367 39.886 19.546 39.8862 18.9282 39.6322C16.179 38.5017 13.5182 37.1812 10.9458 35.6707C8.37382 34.1603 5.91936 32.4772 3.58244 30.6211C3.05678 30.2036 2.71147 29.5945 2.6196 28.9226Z" fill="#50B5FF"/>
<mask id="mask0_0_427" style="mask-type:alpha" maskUnits="userSpaceOnUse" x="2" y="0" width="36" height="40">
<path d="M2.6196 28.9226C2.20653 25.9017 2 22.8979 2 19.9113C2 16.9251 2.20648 13.9217 2.61944 10.9012C2.71137 10.2287 3.05717 9.61915 3.58352 9.20164C5.93453 7.33678 8.38863 5.65353 10.9458 4.15191C13.5037 2.64988 16.1647 1.32956 18.9289 0.190965C19.5466 -0.0634525 20.2373 -0.0636621 20.8551 0.19038C23.6043 1.32087 26.2651 2.64138 28.8375 4.15191C31.4095 5.66223 33.8639 7.34541 36.2008 9.20145C36.7265 9.61894 37.0718 10.2281 37.1637 10.9C37.5767 13.9209 37.7833 16.9247 37.7833 19.9113C37.7833 22.8975 37.5768 25.9009 37.1638 28.9214C37.0719 29.5938 36.7261 30.2034 36.1998 30.6209C33.8488 32.4858 31.3947 34.169 28.8375 35.6707C26.2796 37.1727 23.6185 38.493 20.8544 39.6316C20.2367 39.886 19.546 39.8862 18.9282 39.6322C16.179 38.5017 13.5182 37.1812 10.9458 35.6707C8.37382 34.1603 5.91936 32.4772 3.58244 30.6211C3.05678 30.2036 2.71147 29.5945 2.6196 28.9226Z" fill="white"/>
</mask>
<g mask="url(#mask0_0_427)">
</g>
<path d="M27.3843 18.4881V23.1973L20 29.524L12.6602 26.1603V18.4881H27.3843Z" fill="#5A5A5A"/>
<path d="M27.3842 18.4881V26.1603L20 29.524V18.4881H27.3842Z" fill="#444444"/>
<path d="M30.0533 16.4699V23.8773H28.7188V16.9329L30.0533 16.4699Z" fill="#FFD15C"/>
<path d="M30.0532 16.4699V23.8773H29.386V16.7014L30.0532 16.4699Z" fill="#F8B64C"/>
<path d="M29.386 21.834L27.3842 23.8523V28.8889H31.3878V23.8523L29.386 21.834Z" fill="#FFD15C"/>
<path d="M31.3877 23.8523V28.8889H29.386V21.834L31.3877 23.8523Z" fill="#F8B64C"/>
<path d="M30.1642 15.8145C30.6864 16.0942 30.6852 16.8434 30.1622 17.1215L20 22.5246L9.83784 17.1215C9.31475 16.8434 9.31361 16.0942 9.83584 15.8145L18.9508 10.9324C19.6062 10.5813 20.3938 10.5813 21.0492 10.9324L30.1642 15.8145Z" fill="#6E6E6E"/>
<path d="M30.1642 15.8145C30.6864 16.0942 30.6852 16.8434 30.1622 17.1215L20 22.5246V11.6074C20 11.0476 20.597 10.6902 21.0905 10.9545L30.1642 15.8145Z" fill="#5A5A5A"/>
<path d="M20 14.4517C18.5053 14.4517 17.331 15.3397 17.331 16.4699C17.331 17.6001 18.5053 18.4881 20 18.4881C21.4947 18.4881 22.669 17.6001 22.669 16.4699C22.669 15.3397 21.4947 14.4517 20 14.4517Z" fill="#FFD15C"/>
<path d="M22.669 16.4699C22.669 17.6001 21.4947 18.4881 20 18.4881V14.4517C21.4947 14.4517 22.669 15.3397 22.669 16.4699Z" fill="#F8B64C"/>
</svg>
