<svg width="40" height="40" viewBox="0 0 40 40" fill="none" xmlns="http://www.w3.org/2000/svg">
<path d="M2.6196 28.9226C2.20653 25.9017 2 22.8979 2 19.9113C2 16.9251 2.20648 13.9217 2.61944 10.9012C2.71137 10.2287 3.05717 9.61915 3.58352 9.20164C5.93453 7.33678 8.38863 5.65353 10.9458 4.15191C13.5037 2.64988 16.1647 1.32956 18.9289 0.190965C19.5466 -0.0634525 20.2373 -0.0636621 20.8551 0.19038C23.6043 1.32087 26.2651 2.64138 28.8375 4.15191C31.4095 5.66223 33.8639 7.34541 36.2008 9.20145C36.7265 9.61894 37.0718 10.2281 37.1637 10.9C37.5767 13.9209 37.7833 16.9247 37.7833 19.9113C37.7833 22.8975 37.5768 25.9009 37.1638 28.9214C37.0719 29.5938 36.7261 30.2034 36.1998 30.6209C33.8488 32.4858 31.3947 34.169 28.8375 35.6707C26.2796 37.1727 23.6185 38.493 20.8544 39.6316C20.2367 39.886 19.546 39.8862 18.9282 39.6322C16.179 38.5017 13.5182 37.1812 10.9458 35.6707C8.37382 34.1603 5.91936 32.4772 3.58244 30.6211C3.05678 30.2036 2.71147 29.5945 2.6196 28.9226Z" fill="#50B5FF"/>
<mask id="mask0_0_429" style="mask-type:alpha" maskUnits="userSpaceOnUse" x="2" y="0" width="36" height="40">
<path d="M2.6196 28.9226C2.20653 25.9017 2 22.8979 2 19.9113C2 16.9251 2.20648 13.9217 2.61944 10.9012C2.71137 10.2287 3.05717 9.61915 3.58352 9.20164C5.93453 7.33678 8.38863 5.65353 10.9458 4.15191C13.5037 2.64988 16.1647 1.32956 18.9289 0.190965C19.5466 -0.0634525 20.2373 -0.0636621 20.8551 0.19038C23.6043 1.32087 26.2651 2.64138 28.8375 4.15191C31.4095 5.66223 33.8639 7.34541 36.2008 9.20145C36.7265 9.61894 37.0718 10.2281 37.1637 10.9C37.5767 13.9209 37.7833 16.9247 37.7833 19.9113C37.7833 22.8975 37.5768 25.9009 37.1638 28.9214C37.0719 29.5938 36.7261 30.2034 36.1998 30.6209C33.8488 32.4858 31.3947 34.169 28.8375 35.6707C26.2796 37.1727 23.6185 38.493 20.8544 39.6316C20.2367 39.886 19.546 39.8862 18.9282 39.6322C16.179 38.5017 13.5182 37.1812 10.9458 35.6707C8.37382 34.1603 5.91936 32.4772 3.58244 30.6211C3.05678 30.2036 2.71147 29.5945 2.6196 28.9226Z" fill="white"/>
</mask>
<g mask="url(#mask0_0_429)">
<path d="M15.8323 11.5566H23.5128L28.9379 6.28804C29.4211 5.81883 29.0889 5 28.4154 5H24.1049C23.1294 5 22.1922 5.38017 21.4924 6.05983L15.8323 11.5566Z" fill="#F1543F"/>
<path fill-rule="evenodd" clip-rule="evenodd" d="M14.0359 10.9953V15.0535H24.9374V10.9953C24.9374 10.5811 24.6016 10.2453 24.1874 10.2453H14.7859C14.3717 10.2453 14.0359 10.5811 14.0359 10.9953ZM23.6986 13.8046H15.2747V11.4942H23.6986V13.8046Z" fill="#D99B37"/>
<path d="M23.5128 11.5566H15.8323L10.3598 6.29041C9.87336 5.82227 10.2047 5 10.8799 5H15.2401C16.2157 5 17.1528 5.38017 17.8527 6.05982L23.5128 11.5566Z" fill="#FF7058"/>
<path d="M19.4867 34.9732C25.8153 34.9732 30.9456 29.8011 30.9456 23.421C30.9456 17.0409 25.8153 11.8689 19.4867 11.8689C13.1582 11.8689 8.02786 17.0409 8.02786 23.421C8.02786 29.8011 13.1582 34.9732 19.4867 34.9732Z" fill="#FBC063"/>
<path d="M19.4577 32.1657C14.6883 32.1657 10.7861 28.2317 10.7861 23.4235C10.7861 18.6153 14.6883 14.6813 19.4577 14.6813C24.227 14.6813 28.1293 18.6153 28.1293 23.4235C28.1293 28.2317 24.227 32.1657 19.4577 32.1657Z" fill="#D99B37"/>
<path d="M19.4407 17.6693L20.878 22.0632H25.4871L21.7205 24.8093L23.1578 29.2032L19.4407 26.457L15.7237 29.2032L17.1609 24.8093L13.3943 22.0632H18.0034L19.4407 17.6693Z" fill="#FBC063"/>
</g>
</svg>
