<svg width="40" height="40" viewBox="0 0 40 40" fill="none" xmlns="http://www.w3.org/2000/svg">
<path d="M2.6196 28.9226C2.20653 25.9017 2 22.8979 2 19.9113C2 16.9251 2.20648 13.9217 2.61944 10.9012C2.71137 10.2287 3.05717 9.61915 3.58352 9.20164C5.93453 7.33678 8.38863 5.65353 10.9458 4.15191C13.5037 2.64988 16.1647 1.32956 18.9289 0.190965C19.5466 -0.0634525 20.2373 -0.0636621 20.8551 0.19038C23.6043 1.32087 26.2651 2.64138 28.8375 4.15191C31.4095 5.66223 33.8639 7.34541 36.2008 9.20145C36.7265 9.61894 37.0718 10.2281 37.1637 10.9C37.5767 13.9209 37.7833 16.9247 37.7833 19.9113C37.7833 22.8975 37.5768 25.9009 37.1638 28.9214C37.0719 29.5938 36.7261 30.2034 36.1998 30.6209C33.8488 32.4858 31.3947 34.169 28.8375 35.6707C26.2796 37.1727 23.6185 38.493 20.8544 39.6316C20.2367 39.886 19.546 39.8862 18.9282 39.6322C16.179 38.5017 13.5182 37.1812 10.9458 35.6707C8.37382 34.1603 5.91936 32.4772 3.58244 30.6211C3.05678 30.2036 2.71147 29.5945 2.6196 28.9226Z" fill="#A461D8"/>
<mask id="mask0_0_430" style="mask-type:alpha" maskUnits="userSpaceOnUse" x="2" y="0" width="36" height="40">
<path d="M2.6196 28.9226C2.20653 25.9017 2 22.8979 2 19.9113C2 16.9251 2.20648 13.9217 2.61944 10.9012C2.71137 10.2287 3.05717 9.61915 3.58352 9.20164C5.93453 7.33678 8.38863 5.65353 10.9458 4.15191C13.5037 2.64988 16.1647 1.32956 18.9289 0.190965C19.5466 -0.0634525 20.2373 -0.0636621 20.8551 0.19038C23.6043 1.32087 26.2651 2.64138 28.8375 4.15191C31.4095 5.66223 33.8639 7.34541 36.2008 9.20145C36.7265 9.61894 37.0718 10.2281 37.1637 10.9C37.5767 13.9209 37.7833 16.9247 37.7833 19.9113C37.7833 22.8975 37.5768 25.9009 37.1638 28.9214C37.0719 29.5938 36.7261 30.2034 36.1998 30.6209C33.8488 32.4858 31.3947 34.169 28.8375 35.6707C26.2796 37.1727 23.6185 38.493 20.8544 39.6316C20.2367 39.886 19.546 39.8862 18.9282 39.6322C16.179 38.5017 13.5182 37.1812 10.9458 35.6707C8.37382 34.1603 5.91936 32.4772 3.58244 30.6211C3.05678 30.2036 2.71147 29.5945 2.6196 28.9226Z" fill="white"/>
</mask>
<g mask="url(#mask0_0_430)">
</g>
<path d="M26.5771 11.1111H13.4229C12.479 11.1111 11.5953 11.5862 11.0569 12.3829L9.06682 15.3285C8.37368 16.3544 8.48315 17.7406 9.32799 18.6384L18.24 28.1077C19.2023 29.1301 20.7978 29.1301 21.7601 28.1077L30.672 18.6384C31.517 17.7406 31.6263 16.3544 30.9332 15.3285L28.9431 12.3827C28.4049 11.5862 27.521 11.1111 26.5771 11.1111Z" fill="#7DE2E2"/>
<path d="M16.5803 11.1111H13.4229C12.479 11.1111 11.5952 11.5862 11.0569 12.3829L9.06682 15.3285C8.37368 16.3544 8.48297 17.7406 9.32798 18.6384L18.24 28.1077C18.6657 28.5601 19.2151 28.8123 19.779 28.8643C19.779 28.8643 13.683 21.272 13.683 17.0937C13.6832 14.3979 15.3777 12.277 16.5803 11.1111Z" fill="#66D3D0"/>
<path d="M24.0419 17.0937H31.3737C31.4359 16.4873 31.292 15.8596 30.9334 15.3285L28.9429 12.3827C28.6649 11.9709 28.2942 11.6451 27.8708 11.4264L24.0419 17.0937Z" fill="#A0F0F2"/>
<path d="M15.9581 17.0937H24.0419L20 11.1111L15.9581 17.0937Z" fill="#BDFAFF"/>
<path d="M12.1292 11.4264C11.7058 11.6452 11.3353 11.9709 11.0571 12.3827L9.06682 15.3287C8.708 15.8596 8.56412 16.4873 8.62633 17.0937H15.9581L12.1292 11.4264Z" fill="#A0F0F2"/>
<path d="M8.62631 17.0937C8.684 17.6587 8.92049 18.2053 9.32797 18.6384L18.2399 28.1077C19.2022 29.1301 20.7977 29.1301 21.76 28.1077L30.672 18.6384C31.0795 18.2053 31.3158 17.6587 31.3737 17.0937H8.62631Z" fill="#7DE2E2"/>
<path d="M19.7791 28.8644L15.9581 17.0937H8.62631C8.684 17.6587 8.92049 18.2053 9.32797 18.6384L18.2399 28.1077C18.6657 28.5601 19.2151 28.8123 19.7791 28.8644Z" fill="#66D3D0"/>
<path d="M20.2205 28.8644L24.0419 17.0937H31.3737C31.316 17.6587 31.0795 18.2053 30.672 18.6384L21.7601 28.1077C21.3343 28.5601 20.7844 28.8123 20.2205 28.8644Z" fill="#66D3D0"/>
<path d="M13.6832 17.0937H8.62631C8.684 17.6587 8.92049 18.2053 9.32797 18.6384L18.2399 28.1077C18.6657 28.5601 19.2151 28.8123 19.7791 28.8644C19.7791 28.8644 13.6832 21.272 13.6832 17.0937Z" fill="#57C1BC"/>
<path d="M13.6832 17.0937C13.6832 16.1549 13.8888 15.2856 14.2074 14.5023L12.1292 11.4264C11.7058 11.6451 11.3353 11.9709 11.0571 12.3827L9.06682 15.3287C8.708 15.8596 8.56412 16.4873 8.62633 17.0937H13.6832Z" fill="#7DE2E2"/>
</svg>
