<svg width="40" height="40" viewBox="0 0 40 40" fill="none" xmlns="http://www.w3.org/2000/svg">
<path d="M2.6247 28.9226C2.20823 25.9017 2 22.8979 2 19.9113C2 16.9251 2.20818 13.9217 2.62453 10.9012C2.71722 10.2287 3.06587 9.61915 3.59656 9.20164C5.96691 7.33678 8.44121 5.65353 11.0194 4.15191C13.5984 2.64988 16.2813 1.32956 19.0683 0.190965C19.691 -0.0634525 20.3874 -0.0636621 21.0103 0.19038C23.7821 1.32087 26.4648 2.64138 29.0583 4.15191C31.6515 5.66223 34.1262 7.34541 36.4823 9.20145C37.0123 9.61894 37.3605 10.2281 37.4531 10.9C37.8696 13.9209 38.0778 16.9247 38.0778 19.9113C38.0778 22.8975 37.8696 25.9009 37.4533 28.9214C37.3606 29.5938 37.0119 30.2034 36.4812 30.6209C34.1109 32.4858 31.6366 34.169 29.0583 35.6707C26.4794 37.1727 23.7965 38.493 21.0095 39.6316C20.3868 39.886 19.6904 39.8862 19.0675 39.6322C16.2957 38.5017 13.613 37.1812 11.0194 35.6707C8.42628 34.1603 5.95162 32.4772 3.59546 30.6211C3.06548 30.2036 2.71733 29.5945 2.6247 28.9226Z" fill="#82C43C"/>
<mask id="mask0_0_432" style="mask-type:alpha" maskUnits="userSpaceOnUse" x="2" y="0" width="37" height="40">
<path d="M2.6247 28.9226C2.20823 25.9017 2 22.8979 2 19.9113C2 16.9251 2.20818 13.9217 2.62453 10.9012C2.71722 10.2287 3.06587 9.61915 3.59656 9.20164C5.96691 7.33678 8.44121 5.65353 11.0194 4.15191C13.5984 2.64988 16.2813 1.32956 19.0683 0.190965C19.691 -0.0634525 20.3874 -0.0636621 21.0103 0.19038C23.7821 1.32087 26.4648 2.64138 29.0583 4.15191C31.6515 5.66223 34.1262 7.34541 36.4823 9.20145C37.0123 9.61894 37.3605 10.2281 37.4531 10.9C37.8696 13.9209 38.0778 16.9247 38.0778 19.9113C38.0778 22.8975 37.8696 25.9009 37.4533 28.9214C37.3606 29.5938 37.0119 30.2034 36.4812 30.6209C34.1109 32.4858 31.6366 34.169 29.0583 35.6707C26.4794 37.1727 23.7965 38.493 21.0095 39.6316C20.3868 39.886 19.6904 39.8862 19.0675 39.6322C16.2957 38.5017 13.613 37.1812 11.0194 35.6707C8.42628 34.1603 5.95162 32.4772 3.59546 30.6211C3.06548 30.2036 2.71733 29.5945 2.6247 28.9226Z" fill="white"/>
</mask>
<g mask="url(#mask0_0_432)">
</g>
<path d="M18.836 20.3704L20.1481 32.2589L25.9675 34.6956C26.9436 35.1044 28.0212 34.3874 28.0212 33.3291V20.3704H18.836Z" fill="#F1543F"/>
<path d="M12.2751 20.3704V33.3279C12.2751 34.3865 13.3532 35.1035 14.3295 34.6942L20.1481 32.2544V20.3704H12.2751Z" fill="#FF7058"/>
<path d="M18.1799 15.4187L31.6296 16.7391C31.6296 23.1096 26.4787 28.2931 20.1481 28.2931L18.1799 15.4187Z" fill="#FFD15C"/>
<path d="M31.6296 16.7391H18.1799L20.1481 5.18518C26.4787 5.18518 31.6296 10.3686 31.6296 16.7391Z" fill="#FFD15C"/>
<path d="M20.1481 16.7391V28.2931C13.8176 28.2931 8.66666 23.1096 8.66666 16.7391L14.4074 14.7585L20.1481 16.7391Z" fill="#FFD15C"/>
<path d="M20.1481 5.18518V16.7391H8.66666C8.66666 10.3686 13.8176 5.18518 20.1481 5.18518Z" fill="#FFD15C"/>
<path d="M20.1481 8.48631C15.6257 8.48631 11.9471 12.1882 11.9471 16.7391L20.1481 23.6715C26.1841 23.6715 28.3492 16.7391 28.3492 16.7391C28.3492 12.1882 24.6705 8.48631 20.1481 8.48631Z" fill="white"/>
<path d="M26.3809 16.7391C26.3809 20.1974 23.5847 23.0113 20.1481 23.0113V10.467C16.7116 10.467 13.9153 13.2809 13.9153 16.7391H11.9471C11.9471 21.2901 15.6257 24.9919 20.1481 24.9919C24.6705 24.9919 28.3492 21.2901 28.3492 16.7391H26.3809Z" fill="white"/>
<path fill-rule="evenodd" clip-rule="evenodd" d="M20.1852 25.2222C24.8898 25.2222 28.7037 21.4083 28.7037 16.7037C28.7037 11.9991 24.8898 8.18518 20.1852 8.18518C15.4805 8.18518 11.6667 11.9991 11.6667 16.7037C11.6667 21.4083 15.4805 25.2222 20.1852 25.2222Z" fill="#F8B64C"/>
<path d="M21.7413 16.0631C22.0898 16.1212 22.3926 16.2539 22.6498 16.4613C22.907 16.6604 23.1061 16.9176 23.2471 17.2329C23.3964 17.5481 23.4711 17.8966 23.4711 18.2782C23.4711 18.7926 23.3384 19.2406 23.0729 19.6222C22.8074 20.0039 22.4299 20.2984 21.9404 20.5058C21.4593 20.7215 20.891 20.8293 20.2356 20.8293C19.605 20.8293 19.045 20.7256 18.5556 20.5182C18.0744 20.3191 17.672 20.0246 17.3484 19.6347L18.2942 18.4524C18.5099 18.7179 18.7671 18.9253 19.0658 19.0747C19.3727 19.2323 19.7461 19.3111 20.1858 19.3111C20.6919 19.3111 21.0776 19.2074 21.3431 19C21.6086 18.8009 21.7413 18.4981 21.7413 18.0916C21.7413 17.6601 21.5879 17.3283 21.2809 17.096C20.9739 16.8637 20.5093 16.7476 19.8871 16.7476H19.5387V15.5031H19.9244C20.4305 15.5031 20.8246 15.387 21.1067 15.1547C21.397 14.9224 21.5422 14.632 21.5422 14.2836C21.5422 14.0596 21.4883 13.8729 21.3804 13.7236C21.2726 13.5742 21.1233 13.4622 20.9324 13.3876C20.7499 13.3129 20.5342 13.2756 20.2853 13.2756C19.912 13.2756 19.5719 13.3627 19.2649 13.5369C18.9579 13.7111 18.709 13.9559 18.5182 14.2711L17.4729 13.1013C17.6471 12.8441 17.8836 12.6243 18.1822 12.4418C18.4892 12.251 18.8376 12.1016 19.2276 11.9938C19.6258 11.8859 20.0406 11.832 20.472 11.832C21.0361 11.832 21.5298 11.9233 21.9529 12.1058C22.3843 12.2883 22.7203 12.5455 22.9609 12.8773C23.2015 13.2092 23.3218 13.595 23.3218 14.0347C23.3218 14.3582 23.2554 14.6652 23.1227 14.9556C22.9899 15.2459 22.8033 15.4907 22.5627 15.6898C22.3304 15.8806 22.0566 16.005 21.7413 16.0631Z" fill="#FFEFC8"/>
</svg>
