<svg width="32" height="32" viewBox="0 0 32 32" fill="none" xmlns="http://www.w3.org/2000/svg">
<path fill-rule="evenodd" clip-rule="evenodd" d="M5.99994 6.10352e-05C2.68623 6.10352e-05 -6.10352e-05 2.68635 -6.10352e-05 6.00006V26.0001C-6.10352e-05 29.3138 2.68623 32.0001 5.99994 32.0001H25.9999C29.3136 32.0001 31.9999 29.3138 31.9999 26.0001V6.00006C31.9999 2.68635 29.3136 6.10352e-05 25.9999 6.10352e-05H5.99994ZM7.37099 28.0001C8.47557 28.0001 9.37101 27.1046 9.37099 26L9.37075 13.9686C9.37073 12.8641 8.4753 11.9687 7.37075 11.9687H6.39663C5.29206 11.9687 4.39663 12.8641 4.39663 13.9687V26.0001C4.39663 27.1046 5.29206 28.0001 6.39663 28.0001H7.37099ZM3.99991 6.88778C3.99991 8.48292 5.29053 9.77742 6.8848 9.77742C8.4752 9.77742 9.7671 8.48292 9.7671 6.88778C9.7671 5.29425 8.4752 4.00008 6.8848 4.00008C5.29117 4.00008 4.00024 5.2949 3.99991 6.88778ZM25.9998 27.9998C27.1044 27.9998 27.9999 27.1043 27.9998 25.9997L27.9996 19.206C27.9996 14.8903 27.0696 11.5697 22.0331 11.5697C19.6285 11.5697 18.0104 12.8833 17.3389 14.137C17.3316 14.1506 17.3176 14.159 17.3022 14.159C17.2792 14.159 17.2606 14.1404 17.2606 14.1174V13.0638C17.2606 12.459 16.7703 11.9687 16.1654 11.9687H14.4897C13.3851 11.9687 12.4897 12.8641 12.4897 13.9687V25.9998C12.4897 27.1043 13.3851 27.9998 14.4897 27.9998H15.4602C16.5648 27.9998 17.4602 27.1043 17.4602 25.9998V20.0689C17.4602 17.9783 17.8579 15.9531 20.4446 15.9531C22.9962 15.9531 23.03 18.3447 23.03 20.2041V25.9998C23.03 27.1043 23.9255 27.9998 25.03 27.9998H25.9998Z" fill="#44444F"/>
</svg>
