<svg width="32" height="32" viewBox="0 0 32 32" fill="none" xmlns="http://www.w3.org/2000/svg">
<path d="M31.9999 6C31.9999 2.68629 29.3136 4.40318e-07 25.9999 9.83479e-07L6.00001 4.26173e-06C2.6863 4.80489e-06 7.11183e-06 2.68631 1.58847e-05 6.00002L6.88334e-05 26C7.76063e-05 29.3137 2.68637 31.9999 6.00007 31.9999H25.9999C29.3136 31.9999 31.9999 29.3137 31.9999 25.9999V6ZM16 24.7497C11.1753 24.7497 7.25023 20.8247 7.25023 16C7.25023 11.1753 11.1753 7.25024 16 7.25024C20.8247 7.25024 24.7497 11.1753 24.7497 16C24.7497 20.8247 20.8247 24.7497 16 24.7497ZM24.9589 9.31371C23.5332 9.31371 22.3735 8.15404 22.3735 6.72827C22.3735 5.30249 23.5332 4.14258 24.9589 4.14258C26.3847 4.14258 27.5446 5.30249 27.5446 6.72827C27.5446 8.15404 26.3847 9.31371 24.9589 9.31371Z" fill="#44444F"/>
</svg>
