<svg width="32" height="32" viewBox="0 0 32 32" fill="none" xmlns="http://www.w3.org/2000/svg">
<path fill-rule="evenodd" clip-rule="evenodd" d="M6 0C2.68629 0 0 2.68629 0 6V26C0 29.3137 2.68629 32 6 32H26C29.3137 32 32 29.3137 32 26V6C32 2.68629 29.3137 0 26 0H6ZM26.3263 17.9852C26.0888 17.7666 25.8513 17.5479 25.6171 17.3257C24.8196 16.5697 24.7686 16.1309 25.4106 15.2604C25.7826 14.7529 26.1701 14.2563 26.5575 13.7598C26.8979 13.3236 27.2382 12.8874 27.5678 12.4442C27.5927 12.4107 27.6176 12.3771 27.6426 12.3436C28.2775 11.4896 28.9143 10.633 29.2477 9.61279C29.4677 8.93702 29.2725 8.63933 28.5605 8.52139C28.4391 8.50121 28.3124 8.49942 28.1871 8.49942L23.9615 8.49576C23.4408 8.48597 23.1526 8.70702 22.969 9.15629C22.7211 9.76172 22.4653 10.3677 22.1679 10.9511C21.4976 12.2781 20.7474 13.5595 19.6962 14.6439C19.6811 14.6593 19.666 14.675 19.6508 14.6908C19.4297 14.9202 19.1824 15.1769 18.8193 15.0615C18.3344 14.8883 18.1923 14.1118 18.1999 13.8501L18.1961 9.1103C18.1015 8.43436 17.948 8.13258 17.2568 8H12.8663C12.2808 8 11.9871 8.22114 11.6749 8.5764C11.4951 8.78238 11.4398 8.91667 11.8111 8.98504C12.5388 9.11916 12.9495 9.57796 13.0576 10.2867C13.2337 11.4223 13.2205 12.5599 13.1201 13.6995C13.0898 14.0308 13.0309 14.3639 12.8964 14.6731C12.6845 15.1609 12.3414 15.2603 11.8909 14.9605C11.4837 14.6897 11.1977 14.3049 10.9173 13.9202C9.86412 12.4752 9.02511 10.9162 8.33943 9.27763C8.14055 8.80469 7.79955 8.51756 7.28446 8.51023C6.01561 8.48971 4.74842 8.48801 3.48106 8.51194C2.71784 8.52471 2.49057 8.88559 2.80134 9.55787C4.18199 12.5418 5.71815 15.4444 7.72411 18.0859C8.75438 19.4425 9.93807 20.6407 11.4645 21.4895C13.1959 22.4523 15.0596 22.7411 17.0234 22.6511C17.9424 22.6104 18.2189 22.3766 18.2605 21.4876C18.2908 20.8782 18.3608 20.2728 18.6695 19.726C18.9725 19.1884 19.4329 19.086 19.9632 19.4206C20.2283 19.5879 20.4503 19.7996 20.6623 20.0246C20.8296 20.2026 20.9948 20.3823 21.1601 20.562C21.5058 20.9379 21.8515 21.3139 22.2155 21.6741C22.8876 22.3399 23.6869 22.732 24.6888 22.6512L28.5737 22.6529C29.1987 22.6124 29.5244 21.867 29.1648 21.1896C28.911 20.7131 28.5792 20.2894 28.2287 19.8788C27.6453 19.1993 26.9861 18.5925 26.3263 17.9852Z" fill="#44444F"/>
</svg>
